<?xml version="1.0" encoding="utf-8"?>
<!-- Generator: Adobe Illustrator 21.1.0, SVG Export Plug-In . SVG Version: 6.00 Build 0)  -->
<svg version="1.1" id="Layer_1" xmlns="http://www.w3.org/2000/svg" xmlns:xlink="http://www.w3.org/1999/xlink" x="0px" y="0px"
	 viewBox="0 0 540 632" style="enable-background:new 0 0 540 632;" xml:space="preserve">
<style type="text/css">
	.st0{display:none;}
	.st1{fill:none;stroke:#EDDE5D;stroke-width:4;stroke-miterlimit:10;}
</style>
<g id="_x35_NVYPf.tif" class="st0">
	
		<image style="display:inline;overflow:visible;" width="540" height="628" id="Layer_0" xlink:href="AA56CB6FA10D060B.png"  transform="matrix(1 0 0 1 0 1.9755)">
	</image>
</g>
<polygon class="st1" points="5.2,69.2 4.5,194.6 109.5,254.9 216,193 216,66.5 109.8,5.2 "/>
<polygon class="st1" points="111,255.1 110.2,380.5 215.2,440.8 321.8,378.9 321.8,252.4 215.6,191.1 "/>
<polygon class="st1" points="216.6,441.5 215.9,566.8 320.9,627.1 427.4,565.2 427.4,438.8 321.2,377.4 "/>
<polygon class="st1" points="5.2,444.3 4.4,569.6 109.4,630 215.9,568.1 215.9,441.6 109.7,380.3 "/>
<polygon class="st1" points="323.9,253.4 323.1,378.8 428.1,439.1 534.6,377.2 534.6,250.7 428.4,189.4 "/>
</svg>
