<svg xmlns="http://www.w3.org/2000/svg" xmlns:xlink="http://www.w3.org/1999/xlink" viewBox="0 0 608.44 703.42"><defs><style>.cls-1{fill:url(#linear-gradient);}.cls-2,.cls-3,.cls-5{fill:none;stroke:#fff;}.cls-2{stroke-miterlimit:10;}.cls-2,.cls-3{stroke-width:0.5px;}.cls-4{fill:#fff;}.cls-5{font-size:200px;font-family:Avenir-Heavy, Avenir;}</style><linearGradient id="linear-gradient" x1="304.26" y1="701.49" x2="304.26" y2="1.49" gradientUnits="userSpaceOnUse"><stop offset="0" stop-color="#f09819"/><stop offset="1" stop-color="#edde5d"/></linearGradient></defs><title>HIVE_logo</title><g id="Layer_2" data-name="Layer 2"><g id="E"><polygon class="cls-1" points="607.37 526.49 607.37 176.49 304.26 1.49 1.15 176.49 1.15 526.49 304.26 701.49 607.37 526.49"/><polygon class="cls-2" points="304.26 701.49 238.1 425.49 115.78 592.67 357.19 425.49 607.37 526.49 523.62 425.49 304.26 701.49"/><polyline class="cls-2" points="149.06 91.09 115.78 283.6 178.73 323.53 115.15 314.12"/><polyline class="cls-2" points="281.54 283.6 262.8 330.56 312.43 370.19 262.8 425.49 386.22 478.53"/><line class="cls-2" x1="238.1" y1="425.49" x2="206.49" y2="393.63"/><polyline class="cls-2" points="137.83 362.64 182.23 389.5 115.15 377.56"/><polyline class="cls-2" points="90.77 325.01 1.15 351.49 149.06 91.09"/><polygon class="cls-2" points="459.26 612 428.01 425.49 357.19 425.49 459.26 612"/><line class="cls-2" x1="520.09" y1="284.41" x2="607.37" y2="176.49"/><polyline class="cls-2" points="331.53 425.49 304.26 701.49 428.53 363.43 392.99 328.98 428.53 305.92 371.3 383.1 428.01 425.49 359.21 412.33"/><polyline class="cls-2" points="345.66 389.71 304.26 1.49 238.1 283.6"/><polyline class="cls-2" points="115.78 340.41 182.23 283.6 459.26 90.98 384.98 283.6 309.75 283.6 149.06 91.09 206.49 283.6 238.1 388.29 206.49 324.71"/><line class="cls-2" x1="126.05" y1="224.21" x2="182.23" y2="283.6"/><line class="cls-2" x1="206.49" y1="428.99" x2="255.05" y2="496.22"/><line class="cls-2" x1="489.99" y1="284.41" x2="459.26" y2="90.98"/><line class="cls-2" x1="483.19" y1="476.36" x2="459.26" y2="612"/><polyline class="cls-2" points="411.58 284.41 323.84 185.14 484.53 250.06"/><polyline class="cls-2" points="517.98 363.43 489.78 403.71 454.04 363.43 525.09 403.6"/><polyline class="cls-2" points="454.04 305.92 517.98 341.71 487.5 305.92 454.04 340.71 521.09 305.92"/><line class="cls-2" x1="454.04" y1="403.6" x2="493.52" y2="363.43"/><polyline class="cls-2" points="467.56 424.47 424.51 548.5 115.78 592.67 1.15 351.49 90.07 425.49"/><polyline class="cls-2" points="262.8 395.03 321.79 396.18 262.8 425.49"/><line class="cls-2" x1="182.23" y1="425.49" x2="115.78" y2="425.49"/><polyline class="cls-2" points="378.12 303.58 331.95 354.95 365.1 337.97 313.36 306.06"/><line class="cls-3" x1="262.8" y1="283.6" x2="177.12" y2="185.14"/><polyline class="cls-2" points="517.59 352.94 607.37 336.91 521.09 305.92 607.37 526.49 525.09 403.6 607.37 176.49 428.53 283.6 304.26 1.49 281.54 283.6 1.15 176.49 90.39 284.41 1.15 351.49 90.3 385.88 1.15 526.49 115.78 425.49 115.78 592.67 182.23 362.64"/><polygon class="cls-4" points="256.79 497.22 256.79 495.22 255.05 494.22 253.32 495.22 253.32 497.22 255.05 498.22 256.79 497.22"/><polygon class="cls-4" points="387.95 479.53 387.95 477.53 386.22 476.53 384.48 477.53 384.48 479.53 386.22 480.53 387.95 479.53"/><polygon class="cls-4" points="319.48 564.49 319.48 562.49 317.75 561.49 316.01 562.49 316.01 564.49 317.75 565.49 319.48 564.49"/><polygon class="cls-4" points="264.53 231.45 264.53 229.45 262.8 228.45 261.06 229.45 261.06 231.45 262.8 232.45 264.53 231.45"/><polygon class="cls-4" points="413.31 221.45 413.31 219.45 411.58 218.45 409.85 219.45 409.85 221.45 411.58 222.45 413.31 221.45"/><polygon class="cls-4" points="447.11 525.83 447.11 523.83 445.38 522.83 443.65 523.83 443.65 525.83 445.38 526.83 447.11 525.83"/><polygon class="cls-4" points="84.95 208.31 84.95 206.31 83.22 205.31 81.49 206.31 81.49 208.31 83.22 209.31 84.95 208.31"/><polygon class="cls-4" points="76.29 412.99 76.29 410.99 74.56 409.99 72.83 410.99 72.83 412.99 74.56 413.99 76.29 412.99"/><polygon class="cls-4" points="325.58 186.14 325.58 184.14 323.84 183.14 322.11 184.14 322.11 186.14 323.84 187.14 325.58 186.14"/><polygon class="cls-4" points="178.85 188.69 178.85 186.69 177.12 185.69 175.38 186.69 175.38 188.69 177.12 189.69 178.85 188.69"/><polygon class="cls-4" points="127.78 225.21 127.78 223.21 126.05 222.21 124.32 223.21 124.32 225.21 126.05 226.21 127.78 225.21"/><polygon class="cls-4" points="489.3 250.64 489.3 248.64 487.57 247.64 485.83 248.64 485.83 250.64 487.57 251.64 489.3 250.64"/><polygon class="cls-4" points="426.24 550.3 426.24 548.3 424.51 547.3 422.78 548.3 422.78 550.3 424.51 551.3 426.24 550.3"/><polygon class="cls-4" points="484.92 477.36 484.92 475.36 483.19 474.36 481.46 475.36 481.46 477.36 483.19 478.36 484.92 477.36"/><text class="cls-5" transform="translate(74.56 425.49)">HIVE</text><polyline class="cls-2" points="90.39 284.41 115.15 314.12 90.77 325.01 115.15 362.64 91.48 362.64 115.15 377.56 90.3 407.38 115.15 425.49 90.3 385.88 115.15 362.64"/><polygon class="cls-2" points="115.15 340.97 91.63 354.95 115.15 362.64 137.83 340.97 137.83 362.64 169.84 340.97 182.23 362.64 206.49 324.71 181.71 295.54 206.49 284.41 181.97 323.53 206.49 348.2 162.09 362.64 149.06 340.71 129.57 362.64 115.15 340.97"/><polygon class="cls-2" points="182.23 425.49 206.49 411.95 182.23 389.5 206.49 366.01 182.23 340.71 206.49 393.63 182.23 425.49"/><polyline class="cls-2" points="115.15 284.41 90.3 311.29 115.15 340.97"/><circle class="cls-4" cx="90.07" cy="283.6" r="3.5"/><circle class="cls-4" cx="115.78" cy="283.6" r="3.5"/><circle class="cls-4" cx="182.23" cy="283.6" r="3.5"/><circle class="cls-4" cx="206.49" cy="283.6" r="3.5"/><circle class="cls-4" cx="206.49" cy="425.49" r="3.5"/><circle class="cls-4" cx="182.23" cy="425.49" r="3.5"/><circle class="cls-4" cx="115.78" cy="425.49" r="3.5"/><circle class="cls-4" cx="115.78" cy="362.64" r="3.5"/><circle class="cls-4" cx="115.78" cy="340.41" r="3.5"/><circle class="cls-4" cx="182.23" cy="340.41" r="3.5"/><circle class="cls-4" cx="182.23" cy="363.17" r="3.5"/><circle class="cls-4" cx="90.07" cy="425.49" r="3.5"/><polyline class="cls-2" points="238.1 425.49 262.8 395.03 238.1 366.16 262.8 330.56 238.1 284.41"/><polyline class="cls-2" points="238.1 314.84 262.8 291.1 238.1 346.27 262.8 354.95 238.1 388.29 262.8 417.11"/><circle class="cls-4" cx="238.1" cy="283.6" r="3.5"/><circle class="cls-4" cx="262.8" cy="283.6" r="3.5"/><circle class="cls-4" cx="262.8" cy="425.49" r="3.5"/><circle class="cls-4" cx="238.1" cy="425.49" r="3.5"/><polyline class="cls-2" points="278.04 284.41 313.36 306.06 290.12 313.18 309.33 327.75 302.51 344.48 331.95 354.95 312.43 370.19 336.91 370.19 325.44 383.1 341.55 383.1 326.99 406.14 343.1 425.49 359.21 412.33 349.3 381.04 371.3 383.1 357.05 362.64 366.34 362.64 365.1 337.97 375.41 350.14 370.99 323.53 392.99 328.98 378.12 303.58 392.99 307.92 385.55 284.41"/><line class="cls-2" x1="411.58" y1="284.41" x2="392.99" y2="307.91"/><polyline class="cls-2" points="305.61 284.41 309.33 327.75 331.95 354.95 321.79 396.18 345.58 392.81"/><polyline class="cls-2" points="392.99 328.98 365.1 337.97 381.26 357.31 366.34 362.64 371.3 383.1 345.58 392.81 343.1 425.49"/><circle class="cls-4" cx="278.03" cy="283.6" r="3.5"/><circle class="cls-4" cx="306.25" cy="283.6" r="3.5"/><circle class="cls-4" cx="345.66" cy="389.71" r="3.5"/><circle class="cls-4" cx="384.98" cy="283.6" r="3.5"/><circle class="cls-4" cx="411.58" cy="283.6" r="3.5"/><circle class="cls-4" cx="331.53" cy="425.49" r="3.5"/><circle class="cls-4" cx="357.19" cy="425.49" r="3.5"/><polyline class="cls-2" points="523.62 425.49 506.81 413.68 523.62 403.71 489.78 424.06 489.78 403.71 467.56 424.47 451.57 403.71 428.53 425.49 451.57 363.43 428.53 384.61"/><polyline class="cls-2" points="517.22 363.43 498.43 342.46 478.98 363.43 516.98 342.25 493.52 363.43 474.31 342.87 470.05 363.43 451.57 342.46 428.53 345.16 451.99 327.51 428.53 284.41 487.5 305.92 520.09 284.41"/><line class="cls-2" x1="428.53" y1="363.43" x2="451.57" y2="342.46"/><polyline class="cls-2" points="451.57 305.92 489.99 284.41 487.5 305.92 428.53 305.92 451.57 342.46"/><polyline class="cls-2" points="428.53 305.92 489.99 284.41 520.09 306.37"/><polyline class="cls-2" points="489.78 424.06 451.57 403.71 428.53 363.43 470.05 363.43 428.53 345.16"/><line class="cls-2" x1="451.57" y1="425.49" x2="451.57" y2="403.71"/><circle class="cls-4" cx="428.53" cy="283.6" r="3.5"/><circle class="cls-4" cx="521.09" cy="283.6" r="3.5"/><circle class="cls-4" cx="521.09" cy="305.92" r="3.5"/><circle class="cls-4" cx="454.04" cy="340.71" r="3.5"/><circle class="cls-4" cx="454.04" cy="305.92" r="3.5"/><circle class="cls-4" cx="517.98" cy="341.71" r="3.5"/><circle class="cls-4" cx="517.98" cy="363.43" r="3.5"/><circle class="cls-4" cx="454.04" cy="363.43" r="3.5"/><circle class="cls-4" cx="454.04" cy="403.6" r="3.5"/><circle class="cls-4" cx="525.09" cy="403.6" r="3.5"/><circle class="cls-4" cx="525.13" cy="425.49" r="3.5"/><circle class="cls-4" cx="428.01" cy="425.49" r="3.5"/></g></g></svg>